<svg width="30" height="11" viewBox="0 0 30 11" fill="none" xmlns="http://www.w3.org/2000/svg">
<path d="M24.7594 0.264C24.5761 0.0880003 24.3579 0 24.1049 0C23.8519 0 23.6356 0.0898333 23.4559 0.2695C23.2763 0.449166 23.1864 0.6655 23.1864 0.9185C23.1864 1.1715 23.2781 1.386 23.4614 1.562L26.4754 4.587H1.18644C0.937104 4.587 0.722604 4.675 0.542937 4.851C0.363271 5.027 0.273438 5.2415 0.273438 5.4945C0.273438 5.7475 0.363271 5.96383 0.542937 6.1435C0.722604 6.32317 0.937104 6.413 1.18644 6.413H26.4754L23.4614 9.438C23.2781 9.614 23.1864 9.8285 23.1864 10.0815C23.1864 10.3345 23.2763 10.5508 23.4559 10.7305C23.6356 10.9102 23.8519 11 24.1049 11C24.3579 11 24.5761 10.912 24.7594 10.736L29.3354 6.149C29.4234 6.061 29.4913 5.96017 29.5389 5.8465C29.5866 5.73283 29.6104 5.61917 29.6104 5.5055C29.6104 5.39183 29.5848 5.27267 29.5334 5.148C29.4894 5.038 29.4234 4.939 29.3354 4.851L24.7594 0.264Z" fill="black"/>
</svg>
