<svg width="7" height="12" viewBox="0 0 7 12" fill="none" xmlns="http://www.w3.org/2000/svg">
<path d="M0.283507 0.288C0.467507 0.0959997 0.689507 0 0.949507 0C1.20951 0 1.42751 0.0959997 1.60351 0.288L6.28351 5.292C6.46751 5.492 6.55951 5.728 6.55951 6C6.55951 6.272 6.46751 6.508 6.28351 6.708L1.60351 11.712C1.42751 11.904 1.20951 12 0.949507 12C0.689507 12 0.467507 11.902 0.283507 11.706C0.0995073 11.51 0.00750732 11.274 0.00750732 10.998C0.00750732 10.722 0.0995073 10.488 0.283507 10.296L4.29151 6L0.283507 1.704C0.0995073 1.512 0.00750732 1.278 0.00750732 1.002C0.00750732 0.726 0.0995073 0.488 0.283507 0.288Z" fill="#3777FF"/>
</svg>
