<svg width="93" height="85" viewBox="0 0 93 85" fill="none" xmlns="http://www.w3.org/2000/svg">
<path d="M77.2613 22.6825L77.2615 22.6828L90.748 38.6318C90.7486 38.6324 90.7491 38.633 90.7496 38.6337C91.9138 40.0393 92.5395 41.8563 92.4981 43.7282L92.4979 43.7282V43.7392L92.498 63.7423C92.498 63.7427 92.4979 63.7431 92.4979 63.7435C92.4848 65.7299 91.7484 67.6312 90.4465 69.0574C89.1452 70.4831 87.3789 71.3252 85.5132 71.4187L85.0551 71.4416L85.0386 71.9C84.9134 75.3601 83.4935 78.623 81.0957 80.9798C78.6987 83.3358 75.5193 84.596 72.2506 84.4943L72.235 84.4938L72.2195 84.4943C68.9573 84.5957 65.7849 83.3339 63.3979 80.9766C61.0101 78.6185 59.6035 75.3561 59.4938 71.9022L59.4784 71.418H58.994H36.3662H35.8839L35.8665 71.9C35.7413 75.3601 34.3214 78.623 31.9236 80.9798C29.5267 83.3358 26.3472 84.596 23.0785 84.4943L23.063 84.4938L23.0475 84.4943C19.7853 84.5957 16.6129 83.3339 14.2259 80.9766C11.838 78.6185 10.4314 75.3562 10.3217 71.9022L10.3063 71.418H9.82197H7.77055C5.85065 71.418 4.00396 70.6161 2.63829 69.1798C1.27182 67.7427 0.5 65.7883 0.5 63.7455V8.1725C0.5 6.12972 1.27182 4.17536 2.63829 2.7382C4.00396 1.3019 5.85065 0.5 7.77055 0.5H51.6565C53.5656 0.516636 55.3967 1.32562 56.7494 2.75974C58.1033 4.19521 58.8671 6.14035 58.867 8.17249V19.614V20.114H59.367L71.7999 20.114L71.8021 20.114C72.8307 20.1094 73.8493 20.3352 74.7902 20.7774C75.7313 21.2196 76.574 21.8685 77.2613 22.6825ZM17.0941 71.8788L17.091 71.918L17.0941 71.9572C17.2148 73.4928 17.9088 74.9215 19.0324 75.9287C20.1468 76.9276 21.594 77.4305 23.0629 77.323C24.5375 77.4312 25.991 76.9311 27.1151 75.9348C28.2485 74.9302 28.9562 73.5027 29.0936 71.9625L29.0976 71.918L29.0936 71.8736C28.9562 70.3334 28.2485 68.9059 27.1151 67.9013C25.991 66.905 24.5375 66.4048 23.0629 66.5131C21.594 66.4055 20.1468 66.9084 19.0324 67.9073C17.9088 68.9145 17.2148 70.3432 17.0941 71.8788ZM51.6586 64.2455H52.1586V63.7455V27.2635V8.1725V7.6725H51.6586H7.77055H7.27055V8.1725V63.7455V64.2455H7.77055H12.7437H12.9798L13.1298 64.0632C14.3636 62.5636 15.8909 61.366 17.605 60.5515C19.3191 59.737 21.1797 59.3247 23.0584 59.342V59.3421L23.07 59.342C24.9587 59.3155 26.8309 59.7234 28.5559 60.5381C30.281 61.3529 31.818 62.5555 33.0583 64.0632L33.2083 64.2455H33.4445H51.6586ZM59.4292 27.2865H58.9292V27.7865V38.4435V38.9435H59.4292H80.8137H81.8867L81.1966 38.1219L72.2449 27.4649L72.095 27.2865H71.8621H59.4292ZM66.3904 71.8788L66.3874 71.918L66.3904 71.9572C66.5112 73.4928 67.2052 74.9215 68.3288 75.9287C69.4432 76.9276 70.8903 77.4305 72.3593 77.323C73.8339 77.4312 75.2873 76.9311 76.4114 75.9348C77.5449 74.9302 78.2526 73.5027 78.39 71.9625L78.394 71.918L78.39 71.8736C78.2526 70.3334 77.5449 68.9059 76.4114 67.9013C75.2873 66.905 73.8339 66.4049 72.3593 66.5131C70.8903 66.4055 69.4432 66.9084 68.3288 67.9073C67.2052 68.9145 66.5112 70.3432 66.3904 71.8788ZM72.3548 59.342V59.3421L72.3664 59.342C74.2551 59.3155 76.1273 59.7234 77.8523 60.5381C79.5773 61.3529 81.1144 62.5554 82.3547 64.0632L82.5047 64.2455H82.7408H85.3517H85.8517V63.7455V46.5506V46.0506H85.3517H59.4292H58.9292V46.5506V63.7455V64.2455H59.4292H62.0401H62.2762L62.4262 64.0632C63.6599 62.5636 65.1873 61.366 66.9014 60.5515C68.6154 59.737 70.4761 59.3247 72.3548 59.342Z" fill="#0037AA" stroke="#ECECEC"/>
</svg>
