<svg width="64" height="85" viewBox="0 0 64 85" fill="none" xmlns="http://www.w3.org/2000/svg">
<path d="M62.9957 79.73V79.7493L62.9965 79.7686C63.0421 80.9508 62.6463 81.9191 61.7736 82.7428C60.8692 83.5963 59.8602 84 58.7058 84H5.37955C4.08994 84 3.06964 83.5823 2.24583 82.7616C1.41439 81.9333 1.00427 80.9433 1.00427 79.73V42.5V42.4807L1.00352 42.4614C0.957878 41.2792 1.35373 40.3109 2.22644 39.4872C3.12258 38.6415 4.15722 38.23 5.37955 38.23H6.37955V37.23V26.611C6.43537 21.9622 7.58663 17.6831 9.83125 13.7563C12.0753 9.83036 15.1624 6.72689 19.1069 4.43461C23.0442 2.14649 27.3329 1.0013 31.9921 1C35.4479 1.05561 38.7626 1.73854 41.9428 3.04953C45.1228 4.36039 47.8521 6.18438 50.1421 8.52009C52.4438 10.8677 54.2824 13.5995 55.6575 16.7229C57.0221 19.8224 57.7058 23.1131 57.7058 26.605V37.23V38.23H58.7058C59.927 38.23 60.9226 38.64 61.7542 39.4684C62.5856 40.2967 62.9957 41.2867 62.9957 42.5V79.73ZM9.66951 74.375V75.375H10.6695H53.3305H54.3305V74.375V47.855V46.855H53.3305H10.6695H9.66951V47.855V74.375ZM15.0448 37.23V38.23H16.0448H48.0405H49.0405V37.23V26.605H49.0406L49.0405 26.5921C48.9803 21.9168 47.315 17.9007 44.0601 14.5981C40.7949 11.285 36.7533 9.625 32 9.625C27.2467 9.625 23.2051 11.285 19.9399 14.5981C16.6819 17.9039 15.0448 21.9253 15.0448 26.605V37.23Z" fill="#0037AA" stroke="#ECECEC" stroke-width="2"/>
</svg>
