<svg width="85" height="85" viewBox="0 0 85 85" fill="none" xmlns="http://www.w3.org/2000/svg">
<path d="M61.8182 31.4091H62.3182V30.9091V3.86364C62.3182 2.97154 62.6726 2.11599 63.3034 1.48519C63.9342 0.854383 64.7897 0.5 65.6818 0.5H81.1364C82.0285 0.5 82.884 0.854383 83.5148 1.48519C84.1456 2.11599 84.5 2.97154 84.5 3.86364V81.1364C84.5 82.0285 84.1456 82.884 83.5148 83.5148C82.884 84.1456 82.0285 84.5 81.1364 84.5H3.86364C2.97154 84.5 2.11599 84.1456 1.48519 83.5148C0.854383 82.884 0.5 82.0285 0.5 81.1364L0.5 34.7727L0.5 34.7725C0.499709 34.1474 0.673597 33.5346 1.00216 33.0029C1.33072 32.4711 1.80095 32.0414 2.36009 31.762L2.3602 31.762L25.5419 20.1711C25.5419 20.1711 25.542 20.1711 25.542 20.1711C26.0549 19.9148 26.6248 19.7939 27.1976 19.8198C27.7705 19.8458 28.3272 20.0177 28.8148 20.3194C29.3025 20.621 29.705 21.0423 29.984 21.5432C30.263 22.0442 30.4094 22.6082 30.4091 23.1816V23.1818V28.5214V29.3305L31.1327 28.9686L48.7237 20.1711C49.2367 19.9148 49.8066 19.7939 50.3795 19.8198C50.9523 19.8458 51.509 20.0177 51.9966 20.3194C52.4843 20.621 52.8868 21.0423 53.1658 21.5432C53.4448 22.0442 53.5912 22.6082 53.5909 23.1816V23.1818V30.9091V31.4091H54.0909H61.8182ZM77.7727 7.72727V7.22727H77.2727H69.5455H69.0455V7.72727V15.4545V15.9545H69.5455H77.2727H77.7727V15.4545V7.72727ZM7.22727 77.2727V77.7727H7.72727H77.2727H77.7727V77.2727V23.1818V22.6818H77.2727H69.5455H69.0455V23.1818V34.7727C69.0455 35.6648 68.6911 36.5204 68.0603 37.1512C67.4295 37.782 66.5739 38.1364 65.6818 38.1364H50.2273C49.3352 38.1364 48.4796 37.782 47.8488 37.1512C47.218 36.5204 46.8636 35.6648 46.8636 34.7727V29.4332V28.6241L46.14 28.986L28.549 37.7834C28.549 37.7834 28.5489 37.7835 28.5489 37.7835C28.0359 38.0398 27.466 38.1607 26.8933 38.1347C26.3204 38.1088 25.7638 37.9368 25.2761 37.6352C24.7884 37.3335 24.3859 36.9123 24.1069 36.4113C23.8279 35.9103 23.6816 35.3464 23.6818 34.773V34.7727V29.4332V28.6242L22.9582 28.986L7.50367 36.7132L7.22727 36.8514V37.1605V77.2727ZM15.9545 46.8636H26.5455V53.5909H15.9545V46.8636ZM35.2727 46.8636H49.7273V53.5909H35.2727V46.8636ZM58.4545 46.8636H69.0455V53.5909H58.4545V46.8636ZM15.9545 62.3182H26.5455V69.0455H15.9545V62.3182ZM35.2727 62.3182H49.7273V69.0455H35.2727V62.3182ZM58.4545 62.3182H69.0455V69.0455H58.4545V62.3182Z" fill="#0037AA" stroke="#ECECEC"/>
</svg>
