<?xml version="1.0" encoding="UTF-8"?>
<svg xmlns="http://www.w3.org/2000/svg" xmlns:xlink="http://www.w3.org/1999/xlink" width="30px" height="30px" viewBox="0 0 30 30" version="1.1">
<g id="surface1">
<path style="fill:none;stroke-width:2;stroke-linecap:round;stroke-linejoin:round;stroke:rgb(100%,100%,100%);stroke-opacity:1;stroke-miterlimit:4;" d="M 20 10 L 18.515625 17.428125 C 18.33125 18.34375 18.240625 18.803125 18 19.14375 C 17.790625 19.446875 17.5 19.684375 17.1625 19.83125 C 16.778125 20 16.3125 20 15.378125 20 L 8.621875 20 C 7.6875 20 7.221875 20 6.8375 19.83125 C 6.5 19.684375 6.209375 19.446875 6 19.14375 C 5.759375 18.803125 5.66875 18.34375 5.484375 17.428125 L 4 10 M 20 10 L 18 10 M 20 10 L 21 10 M 4 10 L 3 10 M 4 10 L 6 10 M 6 10 L 18 10 M 6 10 L 9 4 M 18 10 L 15 4 M 9 13 L 9 16 M 12 13 L 12 16 M 15 13 L 15 16 " transform="matrix(1.25,0,0,1.25,0,0)"/>
</g>
</svg>
