<?xml version="1.0" encoding="UTF-8"?>
<svg xmlns="http://www.w3.org/2000/svg" xmlns:xlink="http://www.w3.org/1999/xlink" width="37px" height="37px" viewBox="0 0 37 37" version="1.1">
<g id="surface1">
<path style="fill:none;stroke-width:2;stroke-linecap:round;stroke-linejoin:round;stroke:rgb(100%,100%,100%);stroke-opacity:1;stroke-miterlimit:4;" d="M 9.499155 6.499155 L 13.999155 6.499155 C 15.380068 6.499155 16.5 7.619088 16.5 9 C 16.5 10.380912 15.380068 11.500845 13.999155 11.500845 L 9.499155 11.500845 Z M 9.499155 6.499155 L 9.499155 17.500845 M 9.75 11.500845 L 7.999155 11.500845 M 13.000845 14.749155 L 7.999155 14.749155 M 22.000845 12 C 22.000845 17.523649 17.523649 22.000845 12 22.000845 C 6.476351 22.000845 1.999155 17.523649 1.999155 12 C 1.999155 6.476351 6.476351 1.999155 12 1.999155 C 17.523649 1.999155 22.000845 6.476351 22.000845 12 Z M 22.000845 12 " transform="matrix(1.541667,0,0,1.541667,0,0)"/>
</g>
</svg>
