<?xml version="1.0" encoding="UTF-8"?>
<svg xmlns="http://www.w3.org/2000/svg" xmlns:xlink="http://www.w3.org/1999/xlink" width="37px" height="37px" viewBox="0 0 37 37" version="1.1">
<g id="surface1">
<path style="fill:none;stroke-width:2;stroke-linecap:round;stroke-linejoin:round;stroke:rgb(100%,100%,100%);stroke-opacity:1;stroke-miterlimit:4;" d="M 7.000845 14.001689 L 16.999155 14.001689 M 7.000845 14.001689 L 7.000845 11.602196 C 7.000845 11.04223 7.000845 10.76098 7.109797 10.548142 C 7.206081 10.358108 7.358108 10.206081 7.545608 10.109797 C 7.76098 10.000845 8.039696 10.000845 8.599662 10.000845 L 15.400338 10.000845 C 15.960304 10.000845 16.23902 10.000845 16.454392 10.109797 C 16.641892 10.206081 16.793919 10.358108 16.890203 10.548142 C 16.999155 10.76098 16.999155 11.04223 16.999155 11.602196 L 16.999155 14.001689 M 7.000845 14.001689 L 7.000845 21.002534 M 16.999155 14.001689 L 16.999155 21.002534 M 18.347128 6.174831 L 14.146115 4.074324 C 13.360642 3.681588 12.965372 3.483953 12.552365 3.407939 C 12.1875 3.339527 11.8125 3.339527 11.447635 3.407939 C 11.034628 3.483953 10.639358 3.681588 9.853885 4.074324 L 5.652872 6.174831 C 4.690034 6.65625 4.208615 6.896959 3.856419 7.256757 C 3.544764 7.57348 3.309122 7.956081 3.164696 8.376689 C 3 8.853041 3 9.390203 3 10.467061 L 3 19.401182 C 3 19.961149 3 20.242399 3.108953 20.455236 C 3.205236 20.642736 3.357264 20.797297 3.544764 20.893581 C 3.760135 21.002534 4.038851 21.002534 4.598818 21.002534 L 19.401182 21.002534 C 19.961149 21.002534 20.239865 21.002534 20.455236 20.893581 C 20.642736 20.797297 20.794764 20.642736 20.891047 20.455236 C 21 20.242399 21 19.961149 21 19.401182 L 21 10.467061 C 21 9.390203 21 8.853041 20.835304 8.376689 C 20.690878 7.956081 20.455236 7.57348 20.143581 7.256757 C 19.791385 6.896959 19.309966 6.65625 18.347128 6.174831 Z M 18.347128 6.174831 " transform="matrix(1.541667,0,0,1.541667,0,0)"/>
</g>
</svg>
