<svg width="36" height="40" viewBox="0 0 36 40" fill="none" xmlns="http://www.w3.org/2000/svg">
<path d="M35.6413 10.0387C35.6367 10.0302 35.6332 10.0215 35.6285 10.0131C35.6265 10.0095 35.624 10.0063 35.6219 10.0027C35.3741 9.57473 35.0173 9.22104 34.5883 8.97812L19.3577 0.355512C18.9427 0.122385 18.4754 0 18.0001 0C17.5248 0 17.0574 0.122385 16.6424 0.355512L1.41148 8.97821C0.980938 9.22226 0.623152 9.57785 0.375269 10.0081C0.372605 10.0127 0.369394 10.017 0.366774 10.0218C0.362549 10.0293 0.359505 10.0372 0.35545 10.0449C0.122882 10.4609 0.000481129 10.93 0 11.4073V28.5903C0.000381961 29.0848 0.13129 29.5702 0.379328 29.9971C0.627367 30.4239 0.983627 30.7767 1.41165 31.0195L16.6426 39.6422C17.0263 39.858 17.4555 39.9787 17.8948 39.9943C17.9263 39.9968 17.9576 39.9997 17.9897 40H18.0022C18.0458 40 18.0888 39.9974 18.1314 39.9935C18.5618 39.9742 18.9817 39.8538 19.3576 39.6421L34.5883 31.0195C35.0164 30.7768 35.3727 30.4239 35.6207 29.9971C35.8688 29.5703 35.9997 29.0848 36 28.5903V11.4073C35.9996 10.9276 35.876 10.4562 35.6413 10.0387ZM18 2.78471L31.8018 10.5984L26.5021 13.6286L12.5377 5.87708L18 2.78471ZM18.1575 18.3999L4.21942 10.5864L9.69898 7.48421L23.6776 15.2437L18.1575 18.3999ZM19.4057 36.4171L19.5419 20.8139L25.1 17.6358V24.2684C25.1 24.638 25.2459 24.9925 25.5056 25.2538C25.7652 25.5152 26.1174 25.662 26.4847 25.662C26.8519 25.662 27.2041 25.5152 27.4637 25.2538C27.7234 24.9925 27.8693 24.638 27.8693 24.2684V16.0524L33.2308 12.9868V28.5903L19.4057 36.4171Z" fill="white"/>
</svg>
