<svg width="37" height="37" viewBox="0 0 37 37" fill="none" xmlns="http://www.w3.org/2000/svg">
<path fill-rule="evenodd" clip-rule="evenodd" d="M7.35879 9.28748C7.35879 8.22211 8.22341 7.35709 9.28873 7.35709C10.354 7.35709 11.2186 8.22211 11.2186 9.28748C11.2186 10.3529 10.354 11.2174 9.28873 11.2174C8.22341 11.2174 7.35879 10.3529 7.35879 9.28748ZM20.8586 31.7761L4.14356 15.0602C3.96215 14.8787 3.86178 14.6335 3.86178 14.3768V5.79028C3.86178 4.72298 4.72445 3.85808 5.79169 3.85808H14.3779C14.6346 3.85808 14.8797 3.96029 15.0611 4.14172L31.7762 20.8577C32.5289 21.6123 32.5289 22.8339 31.7762 23.5866L23.5875 31.7761C22.8349 32.5288 21.6132 32.5288 20.8586 31.7761ZM29.4777 13.1008C29.1573 12.7785 16.6205 0.243289 16.9428 0.563672C16.58 0.202755 16.0898 0 15.5784 0H3.86178C1.72922 0 0 1.72732 0 3.85808V15.5773C0 16.0888 0.204582 16.5789 0.565478 16.9418L19.4942 35.8695C21.0014 37.3768 23.4447 37.3768 24.952 35.8695C25.2955 35.5259 35.9911 24.8318 35.8695 24.9515C37.3768 23.4442 37.3768 21.0005 35.8695 19.4932L29.4777 13.1008Z" fill="white"/>
</svg>
