<svg width="42" height="42" viewBox="0 0 42 42" fill="none" xmlns="http://www.w3.org/2000/svg">
<path d="M12.2815 9.54308e-05C9.26249 0.00160532 6.78211 0.297456 4.3153 0.792434C2.78662 0.176131 1.28472 -0.22852 0.605069 0.897239C-0.092117 2.05186 0.578278 3.14005 1.70573 4.21145C-0.669734 13.5766 -0.0944546 26.682 1.15706 35.2321C0.237641 36.1485 -0.358675 37.0964 0.242586 38.0027C1.04037 39.2051 2.45317 38.9846 4.04919 38.3574C8.32149 39.0917 13.071 39.2482 17.9268 39.0504C19.0888 34.8409 21.2279 30.6055 23.2627 27.4819C24.7111 25.457 26.0893 23.5105 27.7609 21.9776C26.6848 15.1907 25.1124 8.76707 22.719 3.57712C23.4149 2.72963 23.7104 1.86526 23.1638 0.959944C22.5655 -0.0309904 21.3296 0.165917 19.9997 0.64704C17.3797 0.197092 14.7701 -0.00123683 12.2815 9.54308e-05ZM10.8111 6.2658C12.2861 7.91052 13.2075 9.54538 13.5466 10.9143L12.3217 13.5773L10.0448 11.5173C9.85691 10.1511 10.1113 8.33675 10.8111 6.2658ZM16.1871 9.89221C16.378 11.3637 16.3899 12.6986 16.2521 13.8366L13.7703 17.194L13.2367 14.5878L14.87 11.0369C15.2692 10.6539 15.7079 10.2712 16.1871 9.89221ZM8.63129 12.0424L12.0407 15.006L12.5609 17.5463L8.99269 15.4461C8.38343 14.4305 7.14198 12.2796 7.18396 11.6046C8.552 11.9901 8.40366 11.9581 8.63129 12.0424ZM18.0467 14.8614C18.1691 16.8929 17.8811 18.4962 17.3355 19.6295L14.6719 21.5984L14.1076 18.8416L16.3439 15.8165C16.8601 15.4905 17.4281 15.1709 18.0467 14.8615V14.8614ZM7.96062 16.901C8.40501 16.9336 8.83195 16.979 9.23974 17.0361L12.8971 19.1889L13.4452 21.8661L10.6562 21.2038C9.65526 20.391 8.69359 18.9649 7.96062 16.901ZM19.1123 20.533C18.4944 23.9486 17.0877 25.8679 15.6279 26.2667L14.9476 22.9444L17.6398 20.9541C18.1245 20.7938 18.6158 20.6533 19.1123 20.533ZM28.2323 23.7568C28.5437 23.6392 28.949 23.5739 29.3696 23.5736C30.3065 23.5736 31.066 23.8895 31.0661 24.2793C31.0663 24.6691 30.3067 24.9851 29.3697 24.9851C28.4889 24.9848 27.755 24.7043 27.6802 24.3393C26.6622 25.4588 25.61 26.8507 24.6187 28.3547C24.2375 28.9328 23.8669 29.529 23.5086 30.1323C24.3334 30.1863 24.9412 30.4819 24.9417 30.8292C24.9416 31.2189 24.1819 31.5349 23.2449 31.5348C23.0715 31.5348 22.8984 31.5233 22.7266 31.5004C21.3457 34.0115 20.2489 36.5374 19.7412 38.4216C21.1639 38.7762 22.6216 39.0543 24.0967 39.2635L24.0965 39.2653C24.0965 39.655 24.8562 39.971 25.793 39.971C26.1312 39.9708 26.4615 39.9285 26.7415 39.8496C26.7346 39.8748 26.7309 39.9008 26.7307 39.9269C26.7307 40.3166 27.4904 40.6326 28.4271 40.6326C29.3642 40.6326 30.1237 40.3166 30.1238 39.9269C30.1231 39.8635 30.102 39.8005 30.0608 39.7395C31.2514 39.7642 32.4424 39.7494 33.632 39.6953C33.6167 39.7322 33.6087 39.7717 33.6083 39.8116C33.6083 40.2015 34.368 40.5174 35.3048 40.5174C36.2417 40.5174 37.0013 40.2015 37.0014 39.8117C37.0009 39.6884 36.9226 39.5674 36.7747 39.4606C37.4572 39.3898 38.1383 39.3059 38.8175 39.2087C39.1157 39.434 39.685 39.574 40.3033 39.574C41.2405 39.574 42.0002 39.258 42 38.8682C41.9995 38.7448 41.9212 38.6238 41.7732 38.5169C41.7778 37.5096 41.4652 36.1043 40.8708 34.567C40.2538 32.9711 39.3657 31.2283 38.3629 29.5554C38.1658 29.5859 37.9667 29.6012 37.7673 29.6012C36.8302 29.6012 36.0706 29.2851 36.0708 28.8954C36.0717 28.5465 36.6854 28.2503 37.5146 28.1983C36.3111 26.3508 35.0115 24.667 33.8694 23.4655C33.2651 22.8298 32.7021 22.3296 32.2515 22.0196C31.801 21.7096 31.4606 21.6447 30.7723 21.8706C30.084 22.0966 29.0332 22.9455 28.2323 23.7568ZM10.4825 22.4387L13.7199 23.2074L14.3914 26.4868C12.9253 26.5141 10.9978 25.301 9.15982 22.6265C9.61679 22.5448 10.0577 22.4831 10.4825 22.4387ZM15.9177 27.3899C16.18 28.9841 16.5024 30.5428 16.9072 32.0619L15.6992 32.4008C15.2792 30.829 14.9467 29.2235 14.6779 27.5893L15.9177 27.3899ZM27.7281 33.8037C28.6651 33.8037 29.4247 34.1198 29.4245 34.5096C29.4245 34.8993 28.6649 35.2152 27.7281 35.2152C27.6273 35.2151 27.5265 35.2112 27.426 35.2034C27.5357 35.2983 27.5929 35.4022 27.5935 35.5075C27.5935 35.8973 26.8338 36.2132 25.8968 36.2132C24.9599 36.2132 24.2003 35.8973 24.2003 35.5075C24.2003 35.1178 24.9599 34.8019 25.8968 34.8019C25.9981 34.8021 26.0992 34.806 26.1988 34.8136C26.0892 34.7188 26.0319 34.6148 26.0313 34.5096C26.0311 34.1197 26.7909 33.8037 27.7281 33.8037ZM36.1257 35.176C37.0628 35.176 37.8224 35.4921 37.8222 35.8819C37.8222 36.2716 37.0626 36.5876 36.1257 36.5876C35.1887 36.5876 34.4291 36.2716 34.429 35.8819C34.4289 35.492 35.1885 35.176 36.1257 35.176ZM17.3548 40.015C16.4177 40.015 15.6581 40.331 15.6583 40.7209C15.6583 41.1106 16.4179 41.4265 17.3547 41.4265C17.4816 41.4263 17.6084 41.4201 17.7347 41.4079C17.8685 41.7492 18.5771 41.9999 19.4085 42C20.3456 42 21.1053 41.684 21.1052 41.2942C21.1051 40.9044 20.3454 40.5885 19.4085 40.5885C19.2806 40.5888 19.1532 40.5951 19.0287 40.6072C18.8949 40.2658 18.1863 40.0151 17.3547 40.015H17.3548Z" fill="white"/>
</svg>
