<!DOCTYPE svg PUBLIC "-//W3C//DTD SVG 1.1//EN" "http://www.w3.org/Graphics/SVG/1.1/DTD/svg11.dtd">
<!-- Uploaded to: SVG Repo, www.svgrepo.com, Transformed by: SVG Repo Mixer Tools -->
<svg height="76px" width="76px" version="1.1" id="_x32_" xmlns="http://www.w3.org/2000/svg" xmlns:xlink="http://www.w3.org/1999/xlink" viewBox="-122.88 -122.88 757.76 757.76" xml:space="preserve" fill="#000000" transform="matrix(-1, 0, 0, 1, 0, 0)">
<g id="SVGRepo_bgCarrier" stroke-width="0">
<path transform="translate(-122.88, -122.88), scale(47.36)" fill="#f0e13d" d="M9.166.33a2.25 2.25 0 00-2.332 0l-5.25 3.182A2.25 2.25 0 00.5 5.436v5.128a2.25 2.25 0 001.084 1.924l5.25 3.182a2.25 2.25 0 002.332 0l5.25-3.182a2.25 2.25 0 001.084-1.924V5.436a2.25 2.25 0 00-1.084-1.924L9.166.33z" strokewidth="0"/>
</g>
<g id="SVGRepo_tracerCarrier" stroke-linecap="round" stroke-linejoin="round"/>
<g id="SVGRepo_iconCarrier"> <style type="text/css"> .st0{fill:#000000;} </style> <g> <path class="st0" d="M78.131,72.577c1.653,0,3.267,0.03,4.836,0.05c1.415,0.03,2.785,0.04,4.126,0.04 c12.733,0,24.693,3.783,35.341,9.959c10.332-12.382,15.5-23.72,15.5-32.199c0-10.524-8.534-19.063-19.068-19.063 c-5.74,0-10.892,2.552-14.388,6.583c0.06-0.606,0.1-1.202,0.1-1.817c0-10.535-8.548-19.063-19.068-19.063 c-10.534,0-19.068,8.528-19.068,19.063c0,0.288,0.03,0.576,0.045,0.854c-3.028-2.512-6.925-4.031-11.159-4.031 c-9.652,0-17.485,7.834-17.485,17.474c0,6.513,3.654,15.102,11.875,26.372C59.605,73.46,69.037,72.577,78.131,72.577z"/> <path class="st0" d="M34.455,166.909c0,0-11.602,12.571-27.076,42.545c-17.539,33.996,30.759,56.088,41.393,23.203 C55.936,210.537,39.295,166.423,34.455,166.909z"/> <path class="st0" d="M33.601,150.477c-4.413-14.824-7.893-27.889-11.234-40.171c-6.578,7.038-13.504,15.895-20.797,27.105 c-8.191,12.609,17.926,11.209,26.123,11.596C29.748,149.108,31.715,149.634,33.601,150.477z"/> <path class="st0" d="M499.146,138.862c-34.87-36.906-104.446-43.518-149.423,2.898c-48.238,49.812-36.448,108.8-95.738,108.8 c-59.289,0-94.283-49.326-100.097-94.284c0-7.069-1.112-13.86-3.198-20.224c-8.504-26.163-34.536-52.304-63.524-52.304 c-14.6,0-33.644-2.333-57.691,19.539c4.925,17.921,9.834,36.976,17.355,60.556c16.556,27.86,22.905,89.368,17.971,135.776 c-7.839,67.892,10.986,123.286,70.236,167.091c66.721,49.326,229.2,52.225,248.055-143.62c30.074,7.853,55.407-40.858,35.7-59.056 c39.873,18.398,80.751-33.997,44.088-58.441C513.647,214.29,523.809,164.963,499.146,138.862z M75.56,137.779 c-6.608,0-11.974-5.361-11.974-11.974c0-6.612,5.366-11.964,11.974-11.964c6.608,0,11.964,5.352,11.964,11.964 C87.524,132.418,82.168,137.779,75.56,137.779z M256.437,403.781c-32.497,0-60.417-10.306-82.424-25.17 c-22.037-14.874-38.266-34.195-47.911-52.781c-6.394-12.411-9.964-24.484-9.993-35.247c0-0.933,0.03-1.856,0.084-2.76l14.476,0.904 c-0.045,0.596-0.06,1.211-0.06,1.856c-0.014,5.56,1.5,12.758,4.682,20.582c3.157,7.804,7.938,16.274,14.203,24.574 c12.53,16.631,30.987,32.626,54.221,42.694c15.484,6.722,33.112,10.833,52.722,10.833c24.092,0,51.267-6.206,81.228-21.834 l6.706,12.867C312.629,396.87,283.056,403.781,256.437,403.781z"/> </g> </g>
</svg>