<svg width="20" height="14" viewBox="0 0 20 14" fill="none" xmlns="http://www.w3.org/2000/svg">
<g clip-path="url(#clip0_16_1070)">
<path d="M19.9067 2.19353C19.8788 2.1817 19.8481 2.17848 19.8184 2.18427C19.7887 2.19006 19.7614 2.2046 19.74 2.22603L11.6175 10.3469C11.1878 10.7764 10.6051 11.0176 9.9975 11.0176C9.38993 11.0176 8.80723 10.7764 8.3775 10.3469L0.258335 2.22603C0.237091 2.20441 0.209795 2.18973 0.180043 2.18393C0.150291 2.17812 0.119479 2.18147 0.0916683 2.19353C0.0643406 2.2053 0.0410789 2.22485 0.0247795 2.24974C0.00848017 2.27464 -0.000136756 2.30377 1.64129e-06 2.33353V12.3335C1.64129e-06 12.7756 0.175596 13.1995 0.488157 13.512C0.800718 13.8246 1.22464 14.0002 1.66667 14.0002H18.3333C18.7754 14.0002 19.1993 13.8246 19.5118 13.512C19.8244 13.1995 20 12.7756 20 12.3335V2.33353C20.0001 2.30356 19.9913 2.27424 19.9747 2.24931C19.958 2.22437 19.9344 2.20495 19.9067 2.19353Z" fill="#170F49"/>
<path d="M9.2622 9.46317C9.45778 9.65817 9.72269 9.76767 9.99887 9.76767C10.275 9.76767 10.54 9.65817 10.7355 9.46317L18.8072 1.3915C18.8618 1.33686 18.9002 1.26809 18.918 1.19289C18.9358 1.11769 18.9324 1.03902 18.908 0.965671C18.8164 0.691504 18.5614 0.666504 18.333 0.666504H1.66637C1.4372 0.666504 1.18054 0.691504 1.09054 0.965671C1.0662 1.03902 1.06274 1.11769 1.08055 1.19289C1.09835 1.26809 1.13672 1.33686 1.19137 1.3915L9.2622 9.46317Z" fill="#170F49"/>
</g>
<defs>
<clipPath id="clip0_16_1070">
<rect width="20" height="14" fill="white"/>
</clipPath>
</defs>
</svg>
