<svg width="22" height="26" viewBox="0 0 22 26" fill="none" xmlns="http://www.w3.org/2000/svg">
<path d="M10.3415 0C7.59974 0.00315401 4.97118 1.0885 3.03245 3.01794C1.09373 4.94739 0.00316917 7.56337 0 10.292C0 17.3848 7.11712 23.8212 9.29754 25.6249C9.59071 25.8673 9.95983 26 10.3409 26C10.7221 26 11.0912 25.8673 11.3844 25.6249C13.5615 23.8212 20.683 17.3826 20.683 10.2909C20.6796 7.56247 19.5888 4.94677 17.6502 3.01756C15.7114 1.08835 13.0831 0.00315344 10.3415 0ZM10.3415 15.7089C9.265 15.7089 8.21267 15.3912 7.31758 14.7959C6.4225 14.2008 5.72488 13.3547 5.31292 12.365C4.90095 11.3752 4.79317 10.286 5.00318 9.23524C5.2132 8.18447 5.73159 7.21928 6.49279 6.46173C7.25399 5.70417 8.22382 5.18826 9.27964 4.97925C10.3355 4.77023 11.4298 4.8775 12.4244 5.2875C13.419 5.69749 14.2691 6.39177 14.8671 7.28257C15.4652 8.17337 15.7844 9.22067 15.7844 10.292C15.7844 11.0034 15.6437 11.7077 15.37 12.365C15.0965 13.0222 14.6956 13.6193 14.1901 14.1222C13.6848 14.6253 13.0848 15.0243 12.4244 15.2965C11.764 15.5688 11.0563 15.7089 10.3415 15.7089Z" fill="#0037AA"/>
</svg>
