<svg width="16" height="19" viewBox="0 0 16 19" fill="none" xmlns="http://www.w3.org/2000/svg">
<path d="M7.52109 0C5.52708 0.00230485 3.6154 0.795443 2.20542 2.20542C0.795443 3.6154 0.00230485 5.52708 0 7.52109C0 12.7043 5.17609 17.4078 6.76185 18.7259C6.97506 18.903 7.24351 19 7.52069 19C7.79787 19 8.06632 18.903 8.27953 18.7259C9.86292 17.4078 15.0422 12.7027 15.0422 7.5203C15.0397 5.52642 14.2464 3.61495 12.8365 2.20514C11.4265 0.795334 9.51496 0.00230444 7.52109 0ZM7.52109 11.4796C6.73818 11.4796 5.97285 11.2474 5.32188 10.8124C4.67091 10.3775 4.16355 9.75924 3.86394 9.03593C3.56433 8.31261 3.48594 7.5167 3.63868 6.74883C3.79142 5.98096 4.16843 5.27563 4.72203 4.72203C5.27563 4.16843 5.98096 3.79142 6.74883 3.63868C7.5167 3.48594 8.31261 3.56433 9.03593 3.86394C9.75924 4.16355 10.3775 4.67091 10.8124 5.32188C11.2474 5.97285 11.4796 6.73818 11.4796 7.52109C11.4796 8.04092 11.3772 8.55566 11.1782 9.03593C10.9793 9.51619 10.6877 9.95257 10.3201 10.3201C9.95257 10.6877 9.51619 10.9793 9.03593 11.1782C8.55566 11.3772 8.04092 11.4796 7.52109 11.4796Z" fill="#170F49"/>
</svg>
