<svg width="153" height="186" viewBox="0 0 153 186" fill="none" xmlns="http://www.w3.org/2000/svg">
<path d="M136.641 23.6722C136.641 23.6722 147.729 19.0634 141.338 11.0477C138.485 7.47627 131.966 8.68356 131.966 8.68356C131.966 8.68356 123.396 -5.29421 116.056 3.16462C110.216 9.90143 121.284 16.2642 121.284 16.2642C121.284 16.2642 136.755 17.9755 136.641 23.6722Z" fill="#FF5B33"/>
<path d="M83.2665 182.599C83.2665 182.599 90.3908 181.108 91.2054 185.451C91.2054 185.451 87.2625 183.387 85.031 184.69L83.2665 182.599Z" fill="#F28127"/>
<path d="M49.9196 181.527C49.9196 181.527 45.4302 180.588 44.9154 183.329C44.9154 183.329 47.4041 182.029 48.8051 182.843L49.9196 181.527Z" fill="#F28127"/>
<path d="M67.9994 149.607C67.9994 149.607 64.2395 175.865 64.2395 176.669C64.2395 177.481 75.8611 179.715 76.3228 179.715C76.7871 179.715 82.2716 180.994 85.8482 183.769C85.8482 183.769 88.4326 186.332 83.3488 185.178C78.2677 184.024 77.9626 181.856 69.9973 181.856C62.9952 181.856 62.4247 180.898 62.4247 180.898C62.4247 180.898 48.9325 184.841 48.2347 183.116C46.8496 179.688 57.5691 182.05 60.1057 177.088L54.1808 149.607C54.1808 149.607 65.7812 146.384 67.9994 149.607Z" fill="#FDD172"/>
<path d="M9.20144 46.2176C9.20144 46.2176 13.2 58.3778 20.2234 66.7226C27.2388 75.0647 84.8162 70.5725 87.8463 62.7956C89.0562 59.6965 107.513 27.6708 113.225 21.0083L126.009 52.5776C125.545 55.5865 124.208 67.0887 124.346 71.602C124.346 71.602 126.351 89.6765 124.499 93.9431C122.65 98.2096 114.305 116.417 109.749 120.211C105.199 124.005 89.2498 146.628 66.8822 148.095C45.5309 149.499 21.5554 131.705 21.7438 122.031C21.9321 112.357 10.1381 104.801 7.8589 101.484C-7.89394 78.5617 5.02775 59.1155 9.20144 46.2176Z" fill="#FCBC46"/>
<path d="M139.154 32.5531C139.154 32.5531 143.739 40.7387 141.698 43.4557C141.698 43.4557 139.456 46.5654 138.445 43.989C138.445 43.989 135.752 50.5825 131.78 48.5288C127.803 46.4699 128.816 41.8849 129.626 38.8415C130.435 35.8008 139.154 32.5531 139.154 32.5531Z" fill="#FF5B33"/>
<path d="M142.972 25.2908C147.621 26.2884 153.137 32.2584 152.094 31.1944C152.094 31.1944 141.438 33.0253 139.727 33.6196C140.321 28.3421 141.98 26.1478 142.972 25.2908Z" fill="#F7E9BE"/>
<path d="M142.972 25.2909C141.979 26.1479 140.321 28.3423 139.727 33.6198C138.015 34.2194 129.626 38.8415 129.626 38.8415L126.009 52.5778L113.225 21.0085C127.163 5.76772 141.449 24.9619 142.972 25.2909Z" fill="#FCBC46"/>
<path d="M134.704 24.6088C134.704 24.6088 133.887 23.2742 132.144 23.7942C131.093 24.11 130.613 25.1766 130.613 25.1766C130.613 25.1766 133.157 27.0685 134.704 24.6088Z" fill="#3B393A"/>
<path d="M150.311 31.505C150.311 31.505 142.202 31.1892 140.531 29.5733L140.319 30.311C140.319 30.311 144.253 31.9348 150.311 31.505Z" fill="#F0DFAC"/>
<path d="M99.1308 89.6791C99.1308 89.6791 82.9562 116.799 70.5864 116.56C58.2165 116.324 17.1402 97.3579 22.6936 68.4233C22.6936 68.4233 54.202 107.549 66.7814 108.709C79.3609 109.868 99.1308 89.6791 99.1308 89.6791Z" fill="#F28127"/>
<path d="M99.1309 89.6793C99.1309 89.6793 81.0537 107.759 71.0613 110.611C61.0741 113.466 23.3252 94.0307 22.6937 68.4234C22.6937 68.4234 34.9469 72.5042 60.6152 70.3869C86.2862 68.2722 87.3236 63.6076 87.3236 63.6076C87.3236 63.6076 104.974 62.8514 99.1309 89.6793Z" fill="#FDC96B"/>
<path d="M9.20146 46.2176C9.20146 46.2176 3.29784 74.3137 19.5946 92.4917C19.5946 92.4917 -1.00855 79.3683 2.0534 65.8469L9.20146 46.2176Z" fill="#F28127"/>
<path d="M64.9215 171.426C64.9215 171.426 65.4124 163.585 63.1252 163.084C60.8407 162.58 58.8878 171.426 58.8878 171.426L55.3085 154.734L67.3095 155.235L64.9215 171.426Z" fill="#FACD72"/>
<path d="M76.2618 135.348C76.2618 135.348 70.2759 157.366 64.6084 158.387C62.8996 158.695 58.8905 158.708 57.6752 157.968C52.8143 155.028 50.7977 145.877 48.5185 136.771C46.2473 127.664 73.7809 129.01 76.2618 135.348Z" fill="#FCBC46"/>
<path d="M88.759 88.74C88.759 88.74 73.1124 104.23 69.8568 104.23C66.5985 104.23 34.2834 92.1734 34.2834 92.1734C34.2834 92.1734 66.3835 103.026 72.4066 100.407C78.4297 97.7931 88.759 88.74 88.759 88.74Z" fill="#FCBC46"/>
<path d="M84.5986 84.3249C84.5986 84.3249 68.9519 89.8784 65.6989 89.8784C62.438 89.8784 30.123 85.5561 30.123 85.5561C30.123 85.5561 62.2231 89.4485 68.2461 88.5093C74.2718 87.57 84.5986 84.3249 84.5986 84.3249Z" fill="#FCBC46"/>
</svg>
