<?xml version="1.0" encoding="UTF-8"?>
<svg xmlns="http://www.w3.org/2000/svg" xmlns:xlink="http://www.w3.org/1999/xlink" width="150px" height="150px" viewBox="0 0 150 150" version="1.1">
<g id="surface1">
<path style=" stroke:none;fill-rule:nonzero;fill:rgb(0%,0%,0%);fill-opacity:1;" d="M 140.625 16.003906 L 133.996094 9.375 L 9.375 133.996094 L 16.003906 140.625 L 25.378906 131.25 L 121.875 131.25 C 127.050781 131.242188 131.242188 127.050781 131.25 121.875 L 131.25 25.378906 Z M 121.875 121.875 L 34.753906 121.875 L 71.28125 85.34375 L 82.433594 96.496094 C 86.09375 100.15625 92.03125 100.15625 95.691406 96.496094 L 103.125 89.0625 L 121.875 107.800781 Z M 121.875 94.539062 L 109.753906 82.417969 C 106.09375 78.757812 100.15625 78.757812 96.496094 82.417969 L 89.0625 89.851562 L 77.921875 78.707031 L 121.875 34.753906 Z M 121.875 94.539062 "/>
<path style=" stroke:none;fill-rule:nonzero;fill:rgb(0%,0%,0%);fill-opacity:1;" d="M 28.125 103.125 L 28.125 89.0625 L 51.5625 65.640625 L 58 72.078125 L 64.636719 65.441406 L 58.191406 58.996094 C 54.53125 55.335938 48.59375 55.335938 44.933594 58.996094 L 28.125 75.804688 L 28.125 28.125 L 103.125 28.125 L 103.125 18.75 L 28.125 18.75 C 22.949219 18.753906 18.753906 22.949219 18.75 28.125 L 18.75 103.125 Z M 28.125 103.125 "/>
</g>
</svg>
