<svg width="18" height="18" viewBox="0 0 18 18" fill="none" xmlns="http://www.w3.org/2000/svg">
<path d="M17.3504 12.9262L15.4314 11.0034C15.227 10.7983 14.9843 10.6357 14.7171 10.5247C14.45 10.4137 14.1636 10.3566 13.8743 10.3566C13.5851 10.3566 13.2986 10.4137 13.0315 10.5247C12.7643 10.6357 12.5216 10.7983 12.3172 11.0034L11.9259 11.3953C9.99726 9.77683 8.21576 7.9902 6.60235 6.05643L6.99367 5.66449C7.40574 5.25057 7.63713 4.68991 7.63713 4.10539C7.63713 3.52088 7.40574 2.96021 6.99367 2.54629L5.07071 0.625825C4.6509 0.224146 4.09266 0 3.51207 0C2.93148 0 2.37324 0.224146 1.95343 0.625825L0.904687 1.6809C0.400729 2.18928 0.0867615 2.85584 0.0155043 3.56867C-0.0557528 4.28149 0.12004 4.99716 0.513364 5.59551C3.64011 10.3142 7.67767 14.3589 12.3884 17.4914C12.9879 17.8817 13.7024 18.0556 14.4138 17.9844C15.1253 17.9131 15.7912 17.601 16.3017 17.0995L17.3543 16.0444C17.559 15.8399 17.7214 15.5969 17.8322 15.3295C17.943 15.062 18 14.7753 18 14.4857C18 14.1961 17.943 13.9094 17.8322 13.6419C17.7214 13.3745 17.559 13.1315 17.3543 12.927L17.3504 12.9262Z" fill="#170F49"/>
</svg>
