<svg width="23" height="23" viewBox="0 0 23 23" fill="none" xmlns="http://www.w3.org/2000/svg">
<g clip-path="url(#clip0_173_68)">
<path d="M22.17 16.5168L19.7179 14.0599C19.4567 13.7978 19.1466 13.5901 18.8052 13.4482C18.4639 13.3064 18.0979 13.2334 17.7283 13.2334C17.3587 13.2334 16.9927 13.3064 16.6514 13.4482C16.3099 13.5901 15.9998 13.7978 15.7386 14.0599L15.2387 14.5607C12.7743 12.4926 10.4979 10.2097 8.43634 7.73877L8.93636 7.23796C9.46289 6.70906 9.75855 5.99266 9.75855 5.24578C9.75855 4.4989 9.46289 3.78249 8.93636 3.25359L6.47924 0.799665C5.94282 0.286409 5.22951 0 4.48765 0C3.74578 0 3.03247 0.286409 2.49605 0.799665L1.15599 2.14782C0.512043 2.79741 0.110862 3.64913 0.0198111 4.55997C-0.0712397 5.47079 0.153384 6.38526 0.655965 7.14982C4.65125 13.1793 9.81036 18.3475 15.8296 22.3501C16.5956 22.8488 17.5086 23.071 18.4176 22.9801C19.3268 22.889 20.1776 22.4902 20.83 21.8494L22.1749 20.5012C22.4365 20.2399 22.644 19.9294 22.7856 19.5877C22.9272 19.2459 23 18.8796 23 18.5095C23 18.1395 22.9272 17.7731 22.7856 17.4313C22.644 17.0896 22.4365 16.7791 22.1749 16.5178L22.17 16.5168Z" fill="#0037AA"/>
</g>
<defs>
<clipPath id="clip0_173_68">
<rect width="23" height="23" fill="white"/>
</clipPath>
</defs>
</svg>
