<svg width="84" height="80" viewBox="0 0 84 80" fill="none" xmlns="http://www.w3.org/2000/svg">
<path d="M79.7623 27.363H53.9511L45.9769 2.8529C45.7021 2.02275 45.1718 1.30015 44.4613 0.787941C43.7509 0.275728 42.8965 0 42.0197 0C41.143 0 40.2886 0.275728 39.5781 0.787941C38.8677 1.30015 38.3373 2.02275 38.0626 2.8529L29.9685 27.363H4.15731C3.28013 27.365 2.42596 27.643 1.71648 28.1574C1.00701 28.6717 0.478418 29.3962 0.206015 30.2275C-0.0663873 31.0589 -0.0687083 31.9548 0.199383 32.7876C0.467474 33.6203 0.992302 34.3475 1.6991 34.8655L22.6838 50.0199L14.6497 74.5599C14.4463 75.1831 14.3938 75.8454 14.4962 76.4928C14.5986 77.1401 14.8532 77.7541 15.2391 78.2846C15.6249 78.815 16.1312 79.247 16.7165 79.5451C17.3018 79.8433 17.9495 79.9991 18.6068 80C19.4623 79.9631 20.2872 79.6716 20.9751 79.1631L41.9598 64.0086L62.9445 79.1631C63.6526 79.6724 64.4998 79.9539 65.3727 79.9701C66.03 79.9693 66.6777 79.8134 67.263 79.5153C67.8483 79.2171 68.3546 78.7852 68.7405 78.2547C69.1264 77.7242 69.3809 77.1102 69.4833 76.4629C69.5858 75.8155 69.5332 75.1532 69.3299 74.5301L61.3557 49.99L82.3404 34.8356C83.0431 34.3077 83.5603 33.5716 83.8177 32.7327C84.0751 31.8938 84.0596 30.9952 83.7734 30.1657C83.4872 29.3361 82.9449 28.6182 82.2244 28.1147C81.5039 27.6113 80.642 27.3481 79.7623 27.363ZM57.7583 45.2973L54.2508 47.8678L55.5699 51.9927L61.8353 71.1524L45.4972 59.1963L41.9598 56.6257L38.4224 59.1963L22.0843 71.1524L28.3497 51.9927L29.6687 47.8678L26.1613 45.2973L9.82319 33.3411H34.3753L35.7243 29.2162L41.9598 10.0864L48.1952 29.2162L49.5443 33.3411H74.0964L57.7583 45.2973Z" fill="white"/>
</svg>
