<svg width="80" height="77" viewBox="0 0 80 77" fill="none" xmlns="http://www.w3.org/2000/svg">
<path d="M19.6643 46.7155V46.6488L19.6468 46.5845L11.4193 16.282L9.82385 10.406C9.3103 8.51448 7.59898 7.2 5.64353 7.2H3.83286C1.99429 7.2 0.5 5.70224 0.5 3.85C0.5 1.99776 1.99429 0.5 3.83286 0.5H5.64353C10.6018 0.5 14.9488 3.83358 16.2544 8.64202L17.0795 11.681L17.1797 12.05H17.5621H72.3298C77.0514 12.05 80.4865 16.5606 79.2435 21.1435L72.9768 44.2434C72.1264 47.3779 69.2937 49.55 66.0631 49.55H26.83H26.33V50.05V53.9C26.33 56.3004 28.2678 58.25 30.6628 58.25H59.4093H65.1585C66.9972 58.25 68.4914 59.7477 68.4914 61.6C68.4914 62.3113 68.2713 62.9695 67.8961 63.5115L67.7434 63.732L67.8428 63.9812C68.2609 65.0298 68.4914 66.1748 68.4914 67.375C68.4914 72.4167 64.423 76.5 59.4093 76.5C54.3955 76.5 50.3271 72.4167 50.3271 67.375C50.3271 66.7493 50.3897 66.1387 50.5089 65.549L50.6299 64.95H50.0188H38.1369H37.5258L37.6468 65.549C37.766 66.1388 37.8286 66.7493 37.8286 67.375C37.8286 72.4167 33.7602 76.5 28.7464 76.5C23.7326 76.5 19.6643 72.4167 19.6643 67.375C19.6643 65.0489 20.5299 62.9274 21.9553 61.3161L22.2296 61.006L21.9762 60.6787C20.5272 58.8072 19.6643 56.4555 19.6643 53.9V46.7155ZM66.0631 42.85H66.4455L66.5457 42.4809L72.8124 19.3809L72.9835 18.75H72.3298H19.6527H18.9988L19.1702 19.381L25.4421 42.481L25.5423 42.85H25.9247H66.0631ZM59.4093 64.95C58.0728 64.95 56.9928 66.038 56.9928 67.375C56.9928 68.712 58.0728 69.8 59.4093 69.8C60.7458 69.8 61.8257 68.712 61.8257 67.375C61.8257 66.038 60.7458 64.95 59.4093 64.95ZM28.7464 64.95C27.4097 64.95 26.33 66.038 26.33 67.375C26.33 68.712 27.4097 69.8 28.7464 69.8C30.0831 69.8 31.1628 68.712 31.1628 67.375C31.1628 66.038 30.0831 64.95 28.7464 64.95Z" fill="white" stroke="#170F49"/>
</svg>
