<svg width="80" height="80" viewBox="0 0 80 80" fill="none" xmlns="http://www.w3.org/2000/svg">
<path d="M28.9 40L36.3 47.4L52.9499 30.75M61.8344 14.0945C62.5962 15.9372 64.0588 17.4019 65.9003 18.1666L72.3571 20.8413C74.2001 21.6046 75.6642 23.0688 76.4275 24.9116C77.1908 26.7544 77.1908 28.825 76.4275 30.6679L73.7546 37.1206C72.991 38.9644 72.9898 41.0371 73.7572 42.8797L76.4253 49.3306C76.8034 50.2434 76.9984 51.2217 76.9984 52.2096C76.9988 53.1979 76.8042 54.1762 76.426 55.0889C76.0479 56.0021 75.4936 56.8313 74.7951 57.5298C74.0961 58.2284 73.2666 58.7826 72.3538 59.1604L65.9014 61.8333C64.0584 62.5951 62.594 64.0577 61.8292 65.8992L59.1545 72.3565C58.3911 74.1994 56.9274 75.6635 55.0845 76.4268C53.2419 77.1901 51.1713 77.1901 49.3284 76.4268L42.876 73.7539C41.033 72.9925 38.9632 72.994 37.1217 73.7584L30.6645 76.4294C28.8227 77.1909 26.754 77.1901 24.9127 76.4276C23.0715 75.6646 21.6082 74.2024 20.8444 72.3616L18.1689 65.9022C17.407 64.0596 15.9446 62.5948 14.1031 61.83L7.64594 59.1552C5.80397 58.3923 4.34036 56.9289 3.57676 55.0875C2.81319 53.2456 2.81215 51.1758 3.57387 49.3332L6.2466 42.8808C7.00802 41.0378 7.00647 38.9681 6.24231 37.1262L3.57339 30.6641C3.19499 29.7514 3.00015 28.773 3 27.7849C2.99985 26.7969 3.19436 25.8184 3.57246 24.9056C3.95057 23.9928 4.50483 23.1633 5.20361 22.4648C5.90235 21.7662 6.73189 21.2122 7.64486 20.8344L14.0974 18.1616C15.9384 17.4003 17.4022 15.9396 18.1674 14.1002L20.842 7.6428C21.6053 5.79995 23.0694 4.33582 24.9122 3.57251C26.755 2.80916 28.8255 2.80916 30.6683 3.57251L37.1206 6.24535C38.9636 7.00677 41.0334 7.00522 42.8752 6.24102L49.335 3.57665C51.1776 2.81375 53.2474 2.8139 55.09 3.5771C56.9322 4.34026 58.3963 5.80398 59.1596 7.64632L61.8351 14.1057L61.8344 14.0945Z" stroke="white" stroke-width="6" stroke-linecap="round" stroke-linejoin="round"/>
</svg>
