<?xml version="1.0" encoding="UTF-8"?>
<svg xmlns="http://www.w3.org/2000/svg" xmlns:xlink="http://www.w3.org/1999/xlink" width="49px" height="49px" viewBox="0 0 49 49" version="1.1">
<g id="surface1">
<path style=" stroke:none;fill-rule:nonzero;fill:rgb(0%,0%,0%);fill-opacity:1;" d="M 24.488281 4.082031 C 13.210938 4.082031 4.070312 13.222656 4.070312 24.5 C 4.070312 35.777344 13.210938 44.917969 24.488281 44.917969 C 35.765625 44.917969 44.90625 35.777344 44.90625 24.5 C 44.90625 13.222656 35.765625 4.082031 24.488281 4.082031 Z M 30.980469 35.019531 C 30.824219 35.40625 30.511719 35.707031 30.121094 35.84375 C 29.726562 35.980469 29.296875 35.941406 28.933594 35.738281 L 23.390625 31.429688 L 19.835938 34.710938 C 19.667969 34.835938 19.449219 34.867188 19.253906 34.792969 L 19.933594 28.691406 L 19.957031 28.707031 L 19.96875 28.585938 C 19.96875 28.585938 29.945312 19.507812 30.351562 19.121094 C 30.761719 18.734375 30.625 18.652344 30.625 18.652344 C 30.648438 18.179688 29.886719 18.652344 29.886719 18.652344 L 16.671875 27.152344 L 11.167969 25.277344 C 11.167969 25.277344 10.324219 24.976562 10.246094 24.308594 C 10.160156 23.648438 11.195312 23.289062 11.195312 23.289062 L 33.078125 14.59375 C 33.078125 14.59375 34.875 13.792969 34.875 15.121094 Z M 30.980469 35.019531 "/>
</g>
</svg>
