<?xml version="1.0" encoding="UTF-8"?>
<svg xmlns="http://www.w3.org/2000/svg" xmlns:xlink="http://www.w3.org/1999/xlink" width="38px" height="38px" viewBox="0 0 38 38" version="1.1">
<g id="surface1">
<path style=" stroke:none;fill-rule:nonzero;fill:rgb(25.098039%,70.196078%,87.843137%);fill-opacity:1;" d="M 19 0 C 8.507812 0 0 8.507812 0 19 C 0 29.492188 8.507812 38 19 38 C 29.492188 38 38 29.492188 38 19 C 38 8.507812 29.492188 0 19 0 Z M 19 0 "/>
<path style=" stroke:none;fill-rule:nonzero;fill:rgb(100%,100%,100%);fill-opacity:1;" d="M 28.246094 10.929688 L 24.851562 28.039062 C 24.851562 28.039062 24.375 29.226562 23.070312 28.65625 L 15.242188 22.652344 L 12.394531 21.277344 L 7.597656 19.664062 C 7.597656 19.664062 6.863281 19.402344 6.792969 18.832031 C 6.722656 18.261719 7.621094 17.953125 7.621094 17.953125 L 26.679688 10.480469 C 26.679688 10.480469 28.246094 9.789062 28.246094 10.929688 "/>
<path style=" stroke:none;fill-rule:nonzero;fill:rgb(82.352941%,89.803922%,94.509804%);fill-opacity:1;" d="M 14.636719 27.847656 C 14.636719 27.847656 14.410156 27.824219 14.125 26.925781 C 13.839844 26.023438 12.394531 21.277344 12.394531 21.277344 L 23.902344 13.96875 C 23.902344 13.96875 24.566406 13.5625 24.542969 13.96875 C 24.542969 13.96875 24.660156 14.039062 24.304688 14.371094 C 23.949219 14.703125 15.265625 22.511719 15.265625 22.511719 "/>
<path style=" stroke:none;fill-rule:nonzero;fill:rgb(70.980392%,81.176471%,89.411765%);fill-opacity:1;" d="M 18.242188 24.953125 L 15.144531 27.777344 C 15.144531 27.777344 14.902344 27.960938 14.636719 27.847656 L 15.230469 22.601562 "/>
</g>
</svg>
