<svg width="38" height="38" viewBox="0 0 38 38" fill="none" xmlns="http://www.w3.org/2000/svg">
<path fill-rule="evenodd" clip-rule="evenodd" d="M18.9945 0C8.52012 0 0 8.52251 0 18.9998C0 23.155 1.34001 27.0085 3.61792 30.1363L1.25051 37.1955L8.55352 34.8615C11.5572 36.8497 15.1418 38 19.0055 38C29.4799 38 38 29.4772 38 19.0002C38 8.52285 29.4799 0.000314077 19.0055 0.000314077L18.9945 0ZM13.6902 9.65107C13.3218 8.76871 13.0425 8.73531 12.4844 8.71261C12.2944 8.70158 12.0826 8.69055 11.8478 8.69055C11.1217 8.69055 10.3625 8.90271 9.90458 9.37178C9.34645 9.94142 7.96165 11.2705 7.96165 13.996C7.96165 16.7216 9.94933 19.3576 10.2172 19.7265C10.4964 20.0947 14.0923 25.769 19.6755 28.0816C24.0416 29.8911 25.3372 29.7234 26.3309 29.5112C27.7825 29.1985 29.6028 28.1257 30.0607 26.8304C30.5186 25.5345 30.5186 24.4286 30.3844 24.1941C30.2504 23.9595 29.8817 23.8259 29.3236 23.5462C28.7654 23.2669 26.0517 21.9265 25.538 21.7478C25.0353 21.558 24.5553 21.6252 24.1759 22.1614C23.6398 22.9098 23.1151 23.6695 22.6906 24.1272C22.3556 24.4847 21.8082 24.5295 21.3506 24.3394C20.7363 24.0828 19.0169 23.4791 16.895 21.5914C15.2533 20.1284 14.1368 18.3079 13.8131 17.7606C13.4891 17.2023 13.7797 16.878 14.0362 16.5766C14.3154 16.2301 14.5833 15.9846 14.8625 15.6605C15.1418 15.3367 15.2981 15.169 15.4768 14.7892C15.6668 14.4207 15.5325 14.0408 15.3986 13.7615C15.2647 13.4822 14.1481 10.7566 13.6902 9.65107Z" fill="#67C15E"/>
</svg>
